<svg id="Layer_1" data-name="Layer 1" xmlns="http://www.w3.org/2000/svg" viewBox="0 0 2000 500"><defs><style>.cls-1{fill:#fff;}</style></defs><title>farmsense</title><path class="cls-1" d="M124.66,88.54c-25.93,0-51.87.17-77.79-.24-3.11,0-6.16-3.23-9.24-5,2.9-.82,5.8-2.37,8.7-2.37q79,0,158,.48c2.69,0,5.37,2.13,8.05,3.26-3.31,1.28-6.6,3.64-9.92,3.68C176.52,88.69,150.59,88.55,124.66,88.54Z"/><path class="cls-1" d="M586.31,113c-30.69-2.82-46.29,12.53-58,34-1.49,2.73-4.6,4.59-7,6.85-.52-1.44-1.49-2.89-1.49-4.33C519.8,126.84,559.92,102.36,586.31,113Z"/><path d="M5.05,246.12c0-52.77.27-105.55-.19-158.32-.11-13.19,3.92-18.86,18-19,55.24-.42,110.57-4,165.66-1.64,21.36.93,49.51,8.91,61.28,24,13.44,17.26,12.41,46,16.29,70,.23,1.39-11.9,6.72-18.38,6.91-31.67.94-63.38.58-95.08,1.08-10.15.16-24.31-1.81-21.92,14.14.76,5.12,13.2,11.14,20.85,12,16,1.85,32.45.5,48.7.59,48,.24,73.95,43.5,51.17,86.55-2.43,4.6-11.37,7.94-17.4,8.11-28.43.78-57,1.48-85.31-.23-20-1.21-25.38,6.33-24.55,25.13,1.22,27.57,0,55.25,0,82.88,0,20.32-10,28.75-30.34,28.42C35.28,425.85-.67,389.62,0,331.45c.33-28.44.06-56.89.06-85.34Zm49.84,11.94h1.32c0,44.68.76,89.38-.27,134-.67,28.79,20.25,20.95,35.51,23.23,18.56,2.78,21.35-7.88,21.11-23.31-.47-30,.22-60.13.83-90.18.33-16.32,7.17-24.9,25.58-23.32,25.86,2.23,51.9,2.71,77.88,3.17,10.89.19,27,6.88,26.83-13.57-.09-16,8.73-37.23-20.94-38.79-27.47-1.44-54.78-5.87-82.25-7.72-31.39-2.1-21.58-25.13-23.31-42.83-2-20.54,12.93-19.35,25.53-19.79,32.48-1.14,65-1.24,97.47-2.33,5.84-.2,14.36-1.36,16.88-5.21,10.05-15.31-9.92-51.5-28.42-51.56-51.19-.17-102.37.78-153.55.81-14.79,0-20.28,7.2-20.24,21C55,167.13,54.89,212.59,54.89,258.06ZM12.31,228.58H10.4c0,38.9-1.11,77.84.64,116.65.56,12.4,7.81,24.89,13.73,36.45,2.52,4.92,9.48,7.55,14.43,11.23,1.48-6.05,4.22-12.09,4.24-18.14.17-69.69.21-139.38-.38-209.07-.15-18.58-.73-37.54-4.74-55.52-1.76-7.86-12.65-13.67-19.4-20.42-2.2,6.56-6.21,13.1-6.31,19.7C12,149.16,12.31,188.87,12.31,228.58Zm112.35-140c25.93,0,51.86.14,77.79-.17,3.32,0,6.61-2.4,9.92-3.68-2.68-1.13-5.36-3.24-8.05-3.26q-79-.51-158-.48c-2.9,0-5.8,1.55-8.7,2.37,3.08,1.74,6.13,4.93,9.24,5C72.79,88.71,98.73,88.53,124.66,88.55Zm17.63,120-.13,1.5c25.42,2.64,50.83,5.39,76.27,7.83,4.79.46,9.7-.31,14.55-.51-4.61-2.94-9.14-8.27-13.83-8.42C193.55,208.11,167.91,208.55,142.29,208.55Z"/><path d="M692.81,251.05c0-34.09.81-68.21-.33-102.26-.6-17.93,6.93-23.53,23-21,32.79,5.16,45.93,6.1,43.26,43.6-1.07,15,7.21,19.43,21.39,25.88,30,13.63,56.61-3.21,84.79-1.82,41.32,2.05,61,16,64,56.82,3.12,42.59,2.81,85.53,2.1,128.29-.48,29-25.26,22.14-42.08,23.44-19.33,1.51-20.62-13.17-20.84-28.21-.34-22.66-1.2-45.36-3.27-67.91-.58-6.27-6.22-12.08-9.53-18.11-.8,7.28-1.77,14.55-2.36,21.84-.88,10.9-1.5,21.83-2.23,32.74-16.29-1.41-34.58,1.3-48.3-5.38-14.1-6.85-27.07-21.38-17.34-42,1.31-2.78-1.29-7.42-2.07-11.2-1.77,3.15-4.86,6.19-5.1,9.44-1.89,25-2.68,50-5,75-.91,9.68-3.19,26.12-7.86,27.27-14,3.47-32.41,6-43.85-.43-18.56-10.44-32.41-26.95-29.84-53.49,3-30.56.69-61.62.69-92.46ZM922,320.85h-.11c0-17.84,1-35.75-.18-53.52-3.17-49.08-18.85-63.24-64.84-59.06-6.85.62-15.41,2.57-19.68,7.16-10.36,11.13-19.66,8.1-30.11,1.62-4.79-3-10-8-14.76-7.83-32.35,1.35-44-16.39-46.79-45.67-.51-5.38-10.29-9.88-15.79-14.78-1.76,5.53-5.14,11.09-5,16.59,1.25,67.29,3.17,134.56,4.49,201.85.22,11.65.63,20.66,16.21,20.57,15.82-.08,15.39-9.69,15.89-21,1.06-24.26,1.66-48.72,5.59-72.58,1.51-9.13,11.6-16.85,17.78-25.21,8.06,6.68,18.13,12.06,23.53,20.45,4.31,6.7,4.37,17.16,3.79,25.77-1.3,19.28,11.54,19.72,23.57,16.91,3.61-.84,7.72-13.6,6.21-19.53-4-15.72-5.79-31.16,12.31-36.25,18.84-5.3,29,8.88,31.21,25.35,3.22,24,2.78,48.37,5.46,72.41.77,7,6.94,18.94,10.5,18.9,10.18-.14,22.83-1.06,21.14-18.66S922,338.7,922,320.85ZM717,259h-4.8c0-34.87.12-69.75-.22-104.62,0-3.06-3.12-6.08-4.79-9.12-.79,2.94-2.15,5.85-2.27,8.82-.61,15.41-1,30.83-1.31,46.25-1.11,51.13-2.57,102.25-2.78,153.39,0,6.48,6.64,13,10.2,19.5,2-6.41,5.58-12.8,5.7-19.24C717.31,322.34,717,290.67,717,259Z"/><path d="M502.57,275.62c0-32.45.3-64.9-.09-97.34-.33-28.16,13.21-49.85,32.42-68,16.89-16,46.38-19,65.24-4.18,24.65,19.4,48.67,40.59,68.75,64.54,21.69,25.88,15.15,57.59-17,85.15-15.82,13.59-15.72,25.08-9.22,41.85C655.83,331.45,667.61,365.83,680,400c6.11,16.8,1.6,25.61-17.39,27.77-38.86,4.43-64.55-14.93-72.17-56-.62-3.32-2-6.5-3-9.74-1.28,2.88-3.19,5.65-3.68,8.66-.78,4.76-.69,9.68-.81,14.54-.93,37.36-.92,37.36-27.81,37.45-32.75.1-53.07-15.58-53.47-42.44-.52-34.87-.13-69.75-.13-104.63Zm69.62-151.39c-2.87,1.15-15.38,2.16-19.4,8.54-9.67,15.29-21.35,33-21.59,49.91-1,72.12,1.24,144.31,4.36,216.38.25,5.64,16.13,11.13,25.42,15.12,1,.44,9-9.23,9.51-14.62,2.57-25.76,3.3-51.69,5.49-77.48.9-10.65,3.81-21.13,5.81-31.69,6,9.59,13.67,18.53,17.6,28.9,11.15,29.44,20.86,59.42,30.93,89.26,6.49,19.2,20.08,10.51,32,8.49,16.27-2.74,7.33-13,5.16-19.87-10.21-32.27-18.79-65.38-32.59-96.1-10.65-23.7-9.94-38.41,12-54.93,18.68-14.07,28.32-36.17,19.69-60.71C656.35,156.19,610.37,125,572.19,124.23Zm-50.13,54.18-7.33-.52c0,68.11-.07,136.22.17,204.33,0,4.24,2.41,8.48,3.7,12.72,1.15-4.12,3.3-8.22,3.31-12.34Q522.23,280.51,522.06,178.41ZM586.31,113c-26.39-10.66-66.51,13.82-66.5,36.51,0,1.44,1,2.89,1.49,4.33,2.37-2.26,5.48-4.12,7-6.85C540,125.55,555.62,110.2,586.31,113Z"/><path d="M1645.86,422.63c-8.91,0-18.69,2.35-26.55-.54-13.14-4.81-29.26-10.12-36.31-20.52s-4.67-27.41-6.41-41.51c9.9.05,19.85-.48,29.71.25,24.11,1.79,48.21,6,72.23,5.39,9.66-.24,23.76-8.25,27.57-16.53,6.48-14.08-2.68-26.77-17-32.85-20-8.46-40.88-14.8-60.48-24-26.65-12.5-45.64-32.17-43-64.06,2.67-32.16,18.47-57,49.39-68.93,37.45-14.48,75-17.15,113,.63,23.28,10.87,15.31,30.14,13.68,46.13-.49,4.75-16.82,8.92-26.4,11.46-13.84,3.68-29.47,3-41.77,9.25-8.27,4.2-16.27,17-16.54,26.24-.19,6.86,11.17,15.71,19.22,20.72,8.69,5.42,19.69,7,29.39,11,31.65,12.95,52.37,48.67,46.79,80.05-5.83,32.79-32.35,55.72-68.31,57.66C1684.74,423.49,1665.28,422.63,1645.86,422.63Zm18.87-9.71c13.92-.79,26.89-1.44,39.85-2.27,28-1.8,51.45-18.1,56-38.73,7.1-32.23-6.59-62.16-35.2-75.19-10.26-4.67-22.89-5.43-31.62-11.82-11.5-8.41-28.89-21.36-28.07-31,1.18-13.93,13.9-30.63,26.46-38.78,12.41-8,31.1-5.77,46.3-10.44,5.44-1.67,11.4-10.08,12.08-16,.5-4.36-7.36-14-11.19-13.87-36.22,1.46-73.38.45-105.81,20.54-26.56,16.45-31.81,39.4-15.29,66,15,24.15,38.37,35.84,65.47,42,22.18,5,37.89,26.2,35.53,45.87-2.54,21.24-20.34,38.64-42.87,38.88-17.66.18-35.34-3.51-53.06-4-6.7-.18-13.51,3.85-20.26,6,6.28,6.83,11.5,17.55,19.09,19.63C1635.9,413.53,1651.07,412.18,1664.73,412.92Zm-65.07-160.77c-1-47.35,9.47-62.82,53.31-76.64a317.55,317.55,0,0,1,32.88-8.29c10-2,20.18-2.94,30.28-4.35-11.25-1.19-22.58-3.92-33.73-3.32C1623.6,162.73,1586.18,198,1599.66,252.15Z"/><path d="M1036.93,422.48c-20.24,0-40.62,1.46-60.7-.36-27.14-2.45-44.29-28.82-39.64-56.42,2.93-17.35,15.25-8.27,22.7-7.72,24.82,1.84,49.43,6.57,74.25,8.26,14.06.95,30.86,1.39,34.47-18,4-21.7-11.46-29.79-28.07-36.51-20.05-8.11-41.07-14.55-59.8-25.06-54.88-30.82-35.85-93.65-3.64-115.47,41.37-28,87-32.15,133.72-10.42,23.25,10.81,13,30.69,12.46,46.81-.13,3.69-16.09,7.42-25.09,10.05-16.6,4.85-35.66,5.37-49.64,14.14-18.83,11.81-15,31.86,5.36,41.1,11,5,23,7.55,34.12,12.31,31.73,13.63,51.31,49.25,45.79,80.49-5.87,33.27-31.07,50.14-69.63,56.83-8.73,1.52-17.77,1.2-26.68,1.72C1036.92,423.63,1036.93,423.06,1036.93,422.48Zm-10.16-9.57c15.93-.9,29.75-1.26,43.49-2.56,24.7-2.34,47.29-19.48,51.38-38.3,6.63-30.57-3.65-58.13-28.38-71.41-12-6.43-26.83-8-37.87-15.49-11.79-8-27.68-19.71-28.74-31s11.19-28.51,22.37-35.63c13.3-8.47,31.94-8.14,47.71-13.32,6-2,14.24-8.31,14.69-13.27.51-5.53-6.85-17-10.52-16.88-37.85,1.14-76.8-.15-110,22.68-21.89,15.07-26,35.45-14.19,59.12,13.49,27.1,38,38.71,65.29,46,24.07,6.42,40.63,25.84,38.23,45.94-2.74,23-21.81,39.7-47.49,39.5-16.09-.12-32.15-3.69-48.26-4.1-6.79-.18-13.68,3.78-20.53,5.86,6.22,6.84,11.4,17.72,18.89,19.65C997.52,413.42,1013.47,412.19,1026.77,412.91ZM959.84,250c2.95-50,15-64.78,59.57-76.83,8.53-2.31,17.2-4.18,25.89-5.82,10.54-2,21.17-3.53,31.76-5.26-11.56-.93-23.19-3.2-34.65-2.56C984.36,162.75,949.18,199.56,959.84,250Z"/><path d="M1370.83,272c0-31.6.54-63.22-.22-94.81-.41-16.89,8.28-21.29,22.68-20.29,15.29,1.07,35.64-3.81,37.62,18.84,1.36,15.61,5.91,19.24,20.86,21.49,21.29,3.2,42.32,10.21,62.56,18,38,14.53,53.24,45.07,53.91,83.94.49,28.39.73,56.83-.35,85.19-1,27.1-6.17,29.85-40,29.1-21.31-.48-30.81-10.72-30.4-31.83.48-24.9.18-49.82.18-74.73a27.89,27.89,0,0,0-.5-7.27c-4.51-16.34-7.44-37.32-28.82-36.38-23.7,1-24.25,22.34-24.07,40.58.28,27.58.89,55.17,2.2,82.72.88,18.41-8.63,22.57-24.29,20.17-8.79-1.34-18-1.53-26.29-4.28-17.92-5.91-31.41-15.27-30.53-37.9,1.21-30.79.3-61.65.3-92.49Zm26.8,77.59-4.86.05v26.82c0,21.64,16.93,18,29.69,19.09,15.82,1.4,12.71-10.27,12.52-20-.58-29-1.79-58-.92-86.95.64-21.5,12.14-34.29,35.27-35,23.86-.67,38.66,8.51,44.36,32.26,3.75,15.61,4.67,32,5.64,48.15,1,17-1.1,34.4,1.71,51,1,6.16,11.68,13.45,18.94,14.78,4.43.81,14.83-8.22,15.55-13.74,3.19-24.83,5.54-50,5.14-75-.87-54.28-22.79-81.9-75.17-96.12-15.49-4.2-32.14-4-47.69-8.06-6.78-1.76-13-8.31-17.82-14.09-4.29-5.17-6.26-12.27-9.25-18.52-4.37,7.31-12.37,14.54-12.53,21.94C1397.1,247.4,1397.63,298.52,1397.63,349.62ZM1378.12,373l7.52,0c0-61.38.06-122.77-.17-184.15,0-3.31-2.45-6.62-3.75-9.92-1.2,3.44-3.43,6.87-3.44,10.32C1378.07,250.49,1378.12,311.73,1378.12,373Z"/><path d="M1930.41,271.47q-17,0-34.09,0c-37.5,0-38.61.79-43.86,30-4.8,26.68,8.68,54.49,33.52,59.7,23.46,4.93,48.17,4.05,72.34,5.43,11.83.68,26.22-2.89,24.43,17-1.37,15.33,7.82,36.2-20.78,36.75-24.21.46-48.4,3.58-72.57,3.3-51.42-.6-95.7-34.92-105.92-95.75-5.36-31.9-3.92-66.71,2.77-98.46,10.55-50.1,44.35-79.17,84-82.2,49.71-3.8,95.59,22.35,116.88,66.72a137.63,137.63,0,0,1,5.41,13.47c14,39.15,10.53,44.07-30.53,44.07Zm-10.7-12.17c16.23,0,32.53-.89,48.68.25,16.64,1.17,19.38-6.8,16.81-20.56-6.86-36.85-40.08-68.94-77.31-74.4-38-5.57-71,11.84-90.52,47.35-23.45,42.56-20,88.48-10.72,132.47,10.27,48.56,36.88,65.88,87,67.07,20.26.48,40.6-1.55,60.83-.69,16.89.72,18.42-8.92,18-21.47-.52-15.29-10.44-12.87-20.69-11.74a173.59,173.59,0,0,1-31.57.92c-54.56-4.07-85.69-24.66-76.18-89,3-20,10.36-33.43,34.32-30.48C1892,260.69,1905.91,259.32,1919.71,259.3Z"/><path d="M1140.8,280c-2.16-32,4.46-65.3,25-93.92,45.55-63.61,147.69-46.73,183.26,29.7,1.36,2.93,2.86,5.82,4,8.85,14.92,40.62,10.63,46.82-32.27,46.83-26,0-52,.39-78-.13-15-.3-23.27,3.8-26.84,20.54-9.42,44.14,9.59,71.87,54.35,74.38,18.63,1.05,37.42-.57,56,.93,6,.48,16.52,7.14,16.44,10.78-.31,13.38.06,34.67-7.46,38.69-45.17,24.13-130.92,6.47-164.47-31.53C1145.1,356.06,1139.78,320.2,1140.8,280Zm140.91-20.69c17.06,0,34.15-.52,51.18.18,11.66.48,15.64-2.9,14.15-15.28-4.35-36.21-35.41-70.25-73.13-78.5-38.27-8.36-74.52,8.88-94.48,43.72-24.31,42.41-18.86,88.05-13.19,132.77,5,39.39,42.27,72.4,83.75,69.48,22.64-1.6,45.45-1.38,68.18-1.05,14.26.21,15.42-8.47,15.49-19,.09-13.29-6.34-16.07-18.78-14.27a187.77,187.77,0,0,1-38.88,1.06c-56.57-3.71-82.08-36.85-70.45-91.74,3.53-16.67,10.34-30.37,32.33-27.65C1252.28,260.79,1267.09,259.34,1281.71,259.32Z"/><path d="M477.35,345.8c-.76,22.08-8.27,45.89,14.56,62.67,3.09,2.27,3.66,14.72,1.16,16.51-6.66,4.74-15.61,8.52-23.69,8.6-28.78.28-57.6-.8-86.38-2.05-16.11-.7-32.36-1.63-48.2-4.43-32.27-5.7-45.78-18.81-47.1-43.21-2-37.91,14.54-66.78,43.76-75.52,7.72-2.31,15.85-3.23,23.62-5.39,13.63-3.79,20.94-24,12.8-35.4-1.67-2.34-6.72-5.43-7.27-4.93-4.41,4-10.94,8.41-11.52,13.32-2.59,21.77-18.77,19.58-33.72,22.41-16.89,3.2-28.85-2.18-37.11-16-3-5.05-5.1-12.3-4-17.87C286.3,201,360.4,163,418.09,190.45c36,17.08,45.73,50.73,52.06,85.42C474.34,298.85,475.07,322.47,477.35,345.8ZM309.29,373.75c-.42,32.49,13.82,44.42,47,47.09,37.58,3,75.71-15,112.86,3.46,3,1.51,8.76-2.41,13.24-3.8-1.74-4.66-3.55-9.3-5.19-14-4.59-13.12-11.26-26-13.11-39.48-2.29-16.73,1.65-34.36-1-51-4.74-29.23-9.35-59.17-19.81-86.59-10.57-27.7-34.82-35.18-64.17-29.16-35.94,7.38-61.79,25.77-76.05,60.56-9,21.95-8.23,26.16,14.81,25.1,8.11-.37,19.25-8,23-15.36,8.77-17.22,20-23.13,37-14.64,14.94,7.48,21,32.84,9.41,44.21-7.44,7.33-19.2,11.35-29.75,14.26C321.65,324.35,309.75,338.32,309.29,373.75Z"/><path class="cls-1" d="M54.89,258.06c0-45.47.07-90.93,0-136.39,0-13.77,5.45-21,20.24-21,51.18,0,102.36-1,153.55-.81,18.5.06,38.47,36.25,28.42,51.56-2.52,3.85-11,5-16.88,5.21-32.48,1.09-65,1.19-97.47,2.33-12.6.44-27.53-.75-25.53,19.79,1.73,17.7-8.08,40.73,23.31,42.83,27.47,1.85,54.78,6.28,82.25,7.72,29.67,1.56,20.85,22.83,20.94,38.79.12,20.45-15.94,13.76-26.83,13.57-26-.46-52-.94-77.88-3.17-18.41-1.58-25.25,7-25.58,23.32-.61,30.05-1.3,60.13-.83,90.18.24,15.43-2.55,26.09-21.11,23.31-15.26-2.28-36.18,5.56-35.51-23.23,1-44.66.27-89.36.27-134Z"/><path class="cls-1" d="M12.31,228.58c0-39.71-.3-79.42.3-119.12.1-6.6,4.11-13.14,6.31-19.7,6.75,6.75,17.64,12.56,19.4,20.42,4,18,4.59,36.94,4.74,55.52.59,69.69.55,139.38.38,209.07,0,6.05-2.76,12.09-4.24,18.14-5-3.68-11.91-6.31-14.43-11.23C18.85,370.12,11.6,357.63,11,345.23c-1.75-38.81-.64-77.75-.64-116.65Z"/><path class="cls-1" d="M142.29,208.55c25.62,0,51.26-.44,76.86.4,4.69.15,9.22,5.48,13.83,8.42-4.85.2-9.76,1-14.55.51-25.44-2.44-50.85-5.19-76.27-7.83Z"/><path class="cls-1" d="M922,320.85c0,17.85-1.33,35.83.38,53.51s-11,18.52-21.14,18.66c-3.56,0-9.73-11.94-10.5-18.9-2.68-24-2.24-48.46-5.46-72.41-2.22-16.47-12.37-30.65-31.21-25.35-18.1,5.09-16.32,20.53-12.31,36.25,1.51,5.93-2.6,18.69-6.21,19.53-12,2.81-24.87,2.37-23.57-16.91.58-8.61.52-19.07-3.79-25.77-5.4-8.39-15.47-13.77-23.53-20.45-6.18,8.36-16.27,16.08-17.78,25.21-3.93,23.86-4.53,48.32-5.59,72.58-.5,11.29-.07,20.9-15.89,21-15.58.09-16-8.92-16.21-20.57-1.32-67.29-3.24-134.56-4.49-201.85-.1-5.5,3.28-11.06,5-16.59,5.5,4.9,15.28,9.4,15.79,14.78,2.77,29.28,14.44,47,46.79,45.67,4.81-.2,10,4.87,14.76,7.83,10.45,6.48,19.75,9.51,30.11-1.62,4.27-4.59,12.83-6.54,19.68-7.16,46-4.18,61.67,10,64.84,59.06,1.14,17.77.18,35.68.18,53.52Z"/><path class="cls-1" d="M717,259c0,31.65.32,63.32-.27,95-.12,6.44-3.71,12.83-5.7,19.24-3.56-6.5-10.22-13-10.2-19.5.21-51.14,1.67-102.26,2.78-153.39.34-15.42.7-30.84,1.31-46.25.12-3,1.48-5.88,2.27-8.82,1.67,3,4.76,6.06,4.79,9.12.34,34.87.22,69.75.22,104.62Z"/><path class="cls-1" d="M572.19,124.23c38.18.81,84.16,32,94.44,61.2,8.63,24.54-1,46.64-19.69,60.71-22,16.52-22.66,31.23-12,54.93,13.8,30.72,22.38,63.83,32.59,96.1,2.17,6.88,11.11,17.13-5.16,19.87-12,2-25.55,10.71-32-8.49-10.07-29.84-19.78-59.82-30.93-89.26-3.93-10.37-11.63-19.31-17.6-28.9-2,10.56-4.91,21-5.81,31.69-2.19,25.79-2.92,51.72-5.49,77.48C570,405,562,414.62,561,414.18c-9.29-4-25.17-9.48-25.42-15.12-3.12-72.07-5.38-144.26-4.36-216.38.24-16.89,11.92-34.62,21.59-49.91C556.81,126.39,569.32,125.38,572.19,124.23Zm5.75,109.12c18.36-.11,36.26-14.18,36.77-28.81.45-13-15.28-28.57-28.71-26.57-15.77,2.35-24.59,13-21.64,28.87C566.11,216.3,557.82,233,577.94,233.35Z"/><path class="cls-1" d="M522.06,178.41q0,102.09-.15,204.19c0,4.12-2.16,8.22-3.31,12.34-1.29-4.24-3.69-8.48-3.7-12.72-.24-68.11-.17-136.22-.17-204.33Z"/><path class="cls-1" d="M1664.73,412.92c-13.66-.74-28.83.61-42.59-3.18-7.59-2.08-12.81-12.8-19.09-19.63,6.75-2.12,13.56-6.15,20.26-6,17.72.47,35.4,4.16,53.06,4,22.53-.24,40.33-17.64,42.87-38.88,2.36-19.67-13.35-40.85-35.53-45.87-27.1-6.14-50.5-17.83-65.47-42-16.52-26.65-11.27-49.6,15.29-66,32.43-20.09,69.59-19.08,105.81-20.54,3.83-.15,11.69,9.51,11.19,13.87-.68,5.92-6.64,14.33-12.08,16-15.2,4.67-33.89,2.4-46.3,10.44-12.56,8.15-25.28,24.85-26.46,38.78-.82,9.66,16.57,22.61,28.07,31,8.73,6.39,21.36,7.15,31.62,11.82,28.61,13,42.3,43,35.2,75.19-4.55,20.63-28,36.93-56,38.73C1691.62,411.48,1678.65,412.13,1664.73,412.92Z"/><path class="cls-1" d="M1599.66,252.15c-13.48-54.15,23.94-89.42,82.74-92.6,11.15-.6,22.48,2.13,33.73,3.32-10.1,1.41-20.3,2.35-30.28,4.35a317.55,317.55,0,0,0-32.88,8.29C1609.13,189.33,1598.69,204.8,1599.66,252.15Z"/><path class="cls-1" d="M1026.77,412.91c-13.3-.72-29.25.51-43.9-3.25C975.38,407.73,970.2,396.85,964,390c6.85-2.08,13.74-6,20.53-5.86,16.11.41,32.17,4,48.26,4.1,25.68.2,44.75-16.51,47.49-39.5,2.4-20.1-14.16-39.52-38.23-45.94-27.29-7.28-51.8-18.89-65.29-46-11.79-23.67-7.7-44,14.19-59.12,33.17-22.83,72.12-21.54,110-22.68,3.67-.11,11,11.35,10.52,16.88-.45,5-8.67,11.29-14.69,13.27-15.77,5.18-34.41,4.85-47.71,13.32-11.18,7.12-23.45,24.18-22.37,35.63s16.95,23,28.74,31c11,7.49,25.9,9.06,37.87,15.49,24.73,13.28,35,40.84,28.38,71.41-4.09,18.82-26.68,36-51.38,38.3C1056.52,411.65,1042.7,412,1026.77,412.91Z"/><path class="cls-1" d="M959.84,250c-10.66-50.44,24.52-87.25,82.57-90.47,11.46-.64,23.09,1.63,34.65,2.56-10.59,1.73-21.22,3.27-31.76,5.26-8.69,1.64-17.36,3.51-25.89,5.82C974.83,185.22,962.79,200,959.84,250Z"/><path class="cls-1" d="M1397.63,349.62c0-51.1-.53-102.22.58-153.3.16-7.4,8.16-14.63,12.53-21.94,3,6.25,5,13.35,9.25,18.52,4.8,5.78,11,12.33,17.82,14.09,15.55,4,32.2,3.86,47.69,8.06,52.38,14.22,74.3,41.84,75.17,96.12.4,25-2,50.18-5.14,75-.72,5.52-11.12,14.55-15.55,13.74-7.26-1.33-17.9-8.62-18.94-14.78-2.81-16.62-.68-34-1.71-51-1-16.13-1.89-32.54-5.64-48.15-5.7-23.75-20.5-32.93-44.36-32.26-23.13.66-34.63,13.45-35.27,35-.87,28.95.34,58,.92,86.95.19,9.7,3.3,21.37-12.52,20-12.76-1.13-29.7,2.55-29.69-19.09V349.67Z"/><path class="cls-1" d="M1378.12,373c0-61.25,0-122.49.16-183.73,0-3.45,2.24-6.88,3.44-10.32,1.3,3.3,3.74,6.61,3.75,9.92.23,61.38.17,122.77.17,184.15Z"/><path class="cls-1" d="M1919.71,259.31c-13.8,0-27.76,1.38-41.36-.29-24-2.95-31.37,10.52-34.32,30.48-9.51,64.34,21.62,84.93,76.18,89a173.59,173.59,0,0,0,31.57-.92c10.25-1.13,20.17-3.55,20.69,11.74.44,12.55-1.09,22.19-18,21.47-20.23-.86-40.57,1.17-60.83.69-50.13-1.19-76.74-18.51-87-67.07-9.3-44-12.73-89.91,10.72-132.47,19.56-35.51,52.53-52.92,90.52-47.35,37.23,5.46,70.45,37.55,77.31,74.4,2.57,13.76-.17,21.73-16.81,20.56C1952.24,258.41,1935.94,259.3,1919.71,259.31ZM1909,238.66v-.74c4,0,8.19.58,12.11-.11,12.06-2.11,24-4.72,36-7.13-10.61-12.3-20-26.12-32.33-36.28-6.6-5.43-18.32-5.82-27.83-6.26-15.56-.72-39.37,24.93-34.08,39.57,2.28,6.33,18.82,8,29.17,10.71C1897.37,239.78,1903.32,238.66,1909,238.66Z"/><path class="cls-1" d="M1281.71,259.33c-14.62,0-29.43,1.46-43.83-.33-22-2.72-28.8,11-32.33,27.65-11.63,54.89,13.88,88,70.45,91.74a187.77,187.77,0,0,0,38.88-1.06c12.44-1.8,18.87,1,18.78,14.27-.07,10.57-1.23,19.25-15.49,19-22.73-.33-45.54-.55-68.18,1.05-41.48,2.92-78.76-30.09-83.75-69.48-5.67-44.72-11.12-90.36,13.19-132.77,20-34.84,56.21-52.08,94.48-43.72,37.72,8.25,68.78,42.29,73.13,78.5,1.49,12.38-2.49,15.76-14.15,15.28C1315.86,258.8,1298.77,259.32,1281.71,259.33Zm-10.78-20.89v-1.3c12.16,0,24.49,1.11,36.39-.64,3.76-.56,10-9.85,9-13.27-7.15-23.56-47.09-44-67.88-31.66-12,7.08-17.56,24.9-26,37.88,9.69,3,19.25,6.66,29.14,8.75C1257.72,239.5,1264.44,238.44,1270.93,238.44Z"/><path class="cls-1" d="M309.29,373.75c.46-35.43,12.36-49.4,48.19-59.3,10.55-2.91,22.31-6.93,29.75-14.26,11.56-11.37,5.53-36.73-9.41-44.21-17-8.49-28.22-2.58-37,14.64-3.76,7.37-14.9,15-23,15.36-23,1.06-23.81-3.15-14.81-25.1,14.26-34.79,40.11-53.18,76.05-60.56,29.35-6,53.6,1.46,64.17,29.16,10.46,27.42,15.07,57.36,19.81,86.59,2.69,16.6-1.25,34.23,1,51,1.85,13.51,8.52,26.36,13.11,39.48,1.64,4.69,3.45,9.33,5.19,14-4.48,1.39-10.21,5.31-13.24,3.8-37.15-18.48-75.28-.43-112.86-3.46C323.11,418.17,308.87,406.24,309.29,373.75Zm96.51-13.31c-8.39-9.67-15.05-23.71-25.61-27.88-12.73-5-38,21.71-38.11,37.33-.14,18.25,13.21,25.16,28,27.8C386.67,400.65,399.29,386.09,405.8,360.44Z"/><path d="M577.94,233.35c-20.12-.32-11.83-17-13.58-26.51-3-15.86,5.87-26.52,21.64-28.87,13.43-2,29.16,13.6,28.71,26.57C614.2,219.17,596.3,233.24,577.94,233.35Z"/><path d="M1909,238.66c-5.66,0-11.61,1.12-16.92-.24-10.35-2.67-26.89-4.38-29.17-10.71-5.29-14.64,18.52-40.29,34.08-39.57,9.51.44,21.23.83,27.83,6.26,12.36,10.16,21.72,24,32.33,36.28-12,2.41-24,5-36,7.13-3.92.69-8.07.11-12.11.11Zm-13.86-3.12,25.38-19.12c-7.78-4.63-15.59-12.9-23.33-12.83-7,.06-14,9.17-21,14.29Z"/><path d="M1270.93,238.44c-6.49,0-13.21,1.06-19.42-.24-9.89-2.09-19.45-5.75-29.14-8.75,8.46-13,14.06-30.8,26-37.88,20.79-12.31,60.73,8.1,67.88,31.66,1,3.42-5.19,12.71-9,13.27-11.9,1.75-24.23.64-36.39.64Zm-15.06-3,26-18.86c-7.81-4.68-15.66-13.06-23.41-13-7.15.09-14.18,9.28-21.27,14.46Z"/><path d="M405.8,360.44c-6.51,25.65-19.13,40.21-35.69,37.25-14.82-2.64-28.17-9.55-28-27.8.12-15.62,25.38-42.36,38.11-37.33C390.75,336.73,397.41,350.77,405.8,360.44Zm-21-1.48c-6.2-4.29-12.49-9.63-13.2-9-6.43,6-13.29,12.35-16.92,20.07-1.38,2.93,5.34,9.66,8.36,14.66Z"/></svg>