<svg id="Layer_1" data-name="Layer 1" xmlns="http://www.w3.org/2000/svg" viewBox="0 0 2000 2000"><defs><style>.cls-1{fill:#e6e7e8;}.cls-2{fill:#bcbec0;}.cls-3{fill:#231f20;opacity:0.9;}</style></defs><title>Untitled-1</title><circle class="cls-1" cx="1000" cy="1000" r="1000"/><ellipse class="cls-2" cx="584.98" cy="282.47" rx="103.01" ry="68.11" transform="translate(-62.86 330.34) rotate(-30)"/><ellipse class="cls-2" cx="283.59" cy="1078.31" rx="87.77" ry="132.74" transform="translate(-62.8 18.5) rotate(-3.36)"/><ellipse class="cls-2" cx="890.84" cy="1364.97" rx="119.01" ry="132.74" transform="translate(-78.58 54.64) rotate(-3.36)"/><ellipse class="cls-2" cx="1517.08" cy="1099.66" rx="246.07" ry="119.01" transform="translate(-146.43 1961.93) rotate(-63.34)"/><ellipse class="cls-2" cx="680.07" cy="703.85" rx="132.74" ry="94.2" transform="translate(-174.61 1180.74) rotate(-75.15)"/><ellipse class="cls-2" cx="1203.4" cy="570.18" rx="63.15" ry="90.28" transform="translate(-125.37 482.79) rotate(-21.59)"/><ellipse class="cls-2" cx="1464.35" cy="1785.13" rx="99.51" ry="36.55" transform="translate(-791.85 1294.67) rotate(-38.37)"/><ellipse class="cls-2" cx="397.45" cy="1232.36" rx="28.3" ry="42.8" transform="translate(-260.88 117.33) rotate(-12.68)"/><ellipse class="cls-2" cx="861.67" cy="1867.13" rx="28.3" ry="42.8" transform="translate(-1186.15 1679.8) rotate(-60)"/><ellipse class="cls-2" cx="1662.04" cy="1594.2" rx="35.77" ry="23.65" transform="matrix(0.5, -0.87, 0.87, 0.5, -549.6, 2236.47)"/><ellipse class="cls-2" cx="1792.34" cy="1452.14" rx="131.46" ry="48.3" transform="translate(-361.42 2278.29) rotate(-60)"/><ellipse class="cls-2" cx="225.4" cy="547.46" rx="42.8" ry="21.82" transform="translate(-361.42 468.93) rotate(-60)"/><path class="cls-2" d="M1829.92,568.19c-44,30.4-128.72-16-189.36-103.64s-74.16-183.33-30.21-213.73c11.58-8,26-10.7,42.08-8.68A1004.52,1004.52,0,0,1,1853.35,478.4C1860,519.07,1852.71,552.42,1829.92,568.19Z"/><path class="cls-3" d="M2000,1000c0,552.28-447.71,1000-1000,1000h0c77-33.9,238.37-157.38,379-362.83C1539.52,1402.8,1600,1115.85,1600,1000S1539.52,597.2,1379,362.84C1238.36,157.41,1077,33.93,1000,0V0C1552.29,0,2000,447.71,2000,1000Z"/></svg>